<svg version="1.0" xmlns="http://www.w3.org/2000/svg"
 width="112.000000pt" height="112.000000pt" viewBox="0 0 112.000000 112.000000"
 preserveAspectRatio="xMidYMid meet">

<g transform="translate(0.000000,112.000000) scale(0.100000,-0.100000)"
fill="#FFF" stroke="none">
<path d="M326 609 c-15 -12 -42 -51 -61 -88 l-33 -67 -50 0 c-57 0 -98 -22
-114 -62 -13 -33 -3 -291 12 -306 6 -6 10 -27 10 -48 l0 -38 105 0 105 0 0 35
c0 28 -4 35 -19 35 -11 0 -23 -5 -26 -10 -3 -6 -31 -10 -61 -10 -41 0 -54 4
-54 15 0 13 53 15 420 15 367 0 420 -2 420 -15 0 -12 -13 -15 -60 -15 -36 0
-60 4 -60 11 0 6 -10 9 -22 7 -18 -2 -23 -10 -23 -33 l0 -30 103 -3 102 -3 0
40 c0 23 5 41 13 44 22 8 30 272 11 313 -19 40 -56 59 -114 58 l-47 0 -37 73
c-53 103 -53 103 -294 103 -187 0 -201 -1 -226 -21z m431 -51 c12 -13 32 -46
47 -75 25 -50 25 -52 6 -58 -22 -7 -27 -43 -7 -50 6 -3 41 4 77 15 58 18 66
18 88 4 39 -25 45 -52 35 -160 l-8 -99 -434 -3 c-341 -2 -436 0 -443 10 -13
21 -9 211 5 229 25 33 52 40 97 24 61 -22 100 -20 100 5 0 10 -7 23 -16 28
-14 8 -12 16 15 70 17 33 39 65 48 71 11 6 92 11 194 11 169 0 176 -1 196 -22z"/>
<path d="M340 400 c0 -19 7 -20 215 -20 208 0 215 1 215 20 0 19 -7 20 -215
20 -208 0 -215 -1 -215 -20z"/>
<path d="M120 330 c0 -16 7 -20 38 -20 21 0 47 -7 58 -15 17 -13 15 -14 -33
-15 -50 0 -53 -2 -53 -25 0 -25 1 -25 85 -25 l85 0 0 35 c0 25 -8 44 -25 60
-21 22 -33 25 -90 25 -58 0 -65 -2 -65 -20z"/>
<path d="M841 326 c-12 -13 -24 -40 -28 -60 l-6 -36 92 0 c90 0 91 0 91 25 0
24 -3 25 -62 26 -62 1 -62 1 -33 14 17 8 45 14 63 15 25 0 32 4 32 20 0 18 -7
20 -63 20 -54 0 -67 -4 -86 -24z"/>
<path d="M457 333 c-4 -3 -7 -15 -7 -25 0 -16 10 -18 105 -18 l105 0 0 25 c0
25 0 25 -98 25 -54 0 -102 -3 -105 -7z"/>
<path d="M360 190 c0 -36 3 -40 25 -40 18 0 25 5 25 20 0 19 7 20 150 20 l150
0 0 -25 c0 -18 5 -25 20 -25 17 0 20 7 20 45 l0 45 -195 0 -195 0 0 -40z"/>
<path d="M103 504 c-8 -20 13 -34 52 -34 39 0 60 14 52 34 -5 11 -19 16 -52
16 -33 0 -47 -5 -52 -16z"/>
<path d="M912 498 c3 -20 9 -23 48 -23 39 0 45 3 48 23 3 20 0 22 -48 22 -48
0 -51 -2 -48 -22z"/>
</g>
</svg>
